<svg width="24" height="24" viewBox="0 0 24 24" fill="none" xmlns="http://www.w3.org/2000/svg">
<path d="M21 11V10C21 6.229 21 4.343 19.76 3.172C18.519 2 16.522 2 12.53 2H11.47C7.479 2 5.482 2 4.24 3.172C3 4.343 3 6.229 3 10V14C3 17.771 3 19.657 4.24 20.828C5.481 22 7.478 22 11.47 22H12M8 7H16M8 12H13" stroke="currentColor" stroke-width="1.5" stroke-linecap="round" stroke-linejoin="round"/>
<path d="M21 20.647V17C21 15.57 19.657 14 18 14C16.343 14 15 15.57 15 17V20.5C15 21.28 15.733 22 16.636 22C17.54 22 18.273 21.28 18.273 20.5V17.765" stroke="currentColor" stroke-width="1.5" stroke-linecap="round" stroke-linejoin="round"/>
</svg>
