<svg width="24" height="24" viewBox="0 0 25 24" fill="none" xmlns="http://www.w3.org/2000/svg">
    <path d="M19 6H19.5C20.914 6 21.621 6 22.06 6.44C22.5 6.878 22.5 7.585 22.5 9V16C22.5 17.414 22.5 18.121 22.06 18.56C21.621 19 20.914 19 19.5 19H19M6 6H5.5C4.086 6 3.379 6 2.94 6.44C2.5 6.878 2.5 7.585 2.5 9V16C2.5 17.414 2.5 18.121 2.94 18.56C3.378 19 4.085 19 5.5 19H6M15 8H10M15 12H10M15 16H10M19 17V7C19 5.114 19 4.172 18.414 3.586C17.828 3 16.886 3 15 3H10C8.114 3 7.172 3 6.586 3.586C6 4.172 6 5.114 6 7V17C6 18.886 6 19.828 6.586 20.414C7.172 21 8.114 21 10 21H15C16.886 21 17.828 21 18.414 20.414C19 19.828 19 18.886 19 17Z"
          stroke="currentColor" stroke-width="1.5" stroke-linecap="round" stroke-linejoin="round"/>
</svg>
