<svg width="74" height="44" viewBox="0 0 74 44" fill="none" xmlns="http://www.w3.org/2000/svg">
<rect width="74" height="44" rx="3" fill="#EEF2F8"/>
<path d="M19.504 28V16.8H21.008V26.616H26.016V28H19.504ZM31.3934 28.24C30.5827 28.24 29.86 28.0507 29.2254 27.672C28.5907 27.2933 28.092 26.7893 27.7294 26.16C27.3667 25.5307 27.1854 24.8373 27.1854 24.08C27.1854 23.52 27.2894 22.9893 27.4974 22.488C27.7054 21.9867 27.9987 21.544 28.3774 21.16C28.756 20.7707 29.2014 20.4667 29.7134 20.248C30.2254 20.0293 30.7854 19.92 31.3934 19.92C32.2094 19.92 32.9347 20.1093 33.5694 20.488C34.204 20.8667 34.7027 21.3707 35.0654 22C35.428 22.6293 35.6094 23.3227 35.6094 24.08C35.6094 24.64 35.5054 25.1707 35.2974 25.672C35.0894 26.1733 34.796 26.616 34.4174 27C34.0387 27.384 33.5934 27.688 33.0814 27.912C32.5694 28.1307 32.0067 28.24 31.3934 28.24ZM31.3934 26.912C31.9214 26.912 32.388 26.7973 32.7934 26.568C33.204 26.3333 33.5267 26.0053 33.7614 25.584C33.996 25.1573 34.1134 24.656 34.1134 24.08C34.1134 23.4987 33.996 22.9973 33.7614 22.576C33.532 22.1493 33.212 21.8213 32.8014 21.592C32.3907 21.3627 31.9214 21.248 31.3934 21.248C30.8654 21.248 30.396 21.3627 29.9854 21.592C29.58 21.8213 29.26 22.1493 29.0254 22.576C28.796 22.9973 28.6814 23.4987 28.6814 24.08C28.6814 24.656 28.796 25.1573 29.0254 25.584C29.26 26.0053 29.5827 26.3333 29.9934 26.568C30.404 26.7973 30.8707 26.912 31.3934 26.912ZM40.5555 31.6C39.9688 31.6 39.4408 31.5467 38.9715 31.44C38.5075 31.3333 38.1102 31.1813 37.7795 30.984C37.4488 30.792 37.1955 30.5573 37.0195 30.28C36.8488 30.0027 36.7635 29.6933 36.7635 29.352C36.7635 29.0693 36.8382 28.808 36.9875 28.568C37.1368 28.3333 37.3582 28.1307 37.6515 27.96C37.9448 27.784 38.3075 27.6507 38.7395 27.56C38.4248 27.4053 38.1875 27.232 38.0275 27.04C37.8728 26.8427 37.7955 26.616 37.7955 26.36C37.7955 26.1413 37.8595 25.9387 37.9875 25.752C38.1155 25.56 38.2942 25.3893 38.5235 25.24C38.7582 25.0853 39.0355 24.96 39.3555 24.864C39.6808 24.7627 40.0382 24.6987 40.4275 24.672L40.7875 25.36C40.4462 25.36 40.1502 25.3893 39.8995 25.448C39.6542 25.5067 39.4622 25.592 39.3235 25.704C39.1902 25.8107 39.1235 25.9387 39.1235 26.088C39.1235 26.2907 39.2355 26.4347 39.4595 26.52C39.6888 26.6 39.9955 26.656 40.3795 26.688L41.7235 26.792C42.3902 26.8453 42.9555 26.9547 43.4195 27.12C43.8835 27.2853 44.2382 27.5147 44.4835 27.808C44.7288 28.1013 44.8515 28.472 44.8515 28.92C44.8515 29.2987 44.7475 29.6507 44.5395 29.976C44.3368 30.3067 44.0462 30.592 43.6675 30.832C43.2888 31.072 42.8355 31.2587 42.3075 31.392C41.7795 31.5307 41.1955 31.6 40.5555 31.6ZM40.6675 30.528C41.5155 30.528 42.1822 30.3973 42.6675 30.136C43.1528 29.8747 43.3955 29.5387 43.3955 29.128C43.3955 28.8133 43.2275 28.5653 42.8915 28.384C42.5608 28.208 42.0595 28.096 41.3875 28.048L39.9635 27.944C39.5902 27.9707 39.2702 28.0373 39.0035 28.144C38.7368 28.256 38.5315 28.4 38.3875 28.576C38.2488 28.752 38.1795 28.952 38.1795 29.176C38.1795 29.4427 38.2808 29.6773 38.4835 29.88C38.6862 30.0827 38.9715 30.24 39.3395 30.352C39.7128 30.4693 40.1555 30.528 40.6675 30.528ZM40.6275 25.496C39.9875 25.496 39.4088 25.3733 38.8915 25.128C38.3795 24.8773 37.9715 24.5413 37.6675 24.12C37.3688 23.6987 37.2195 23.2267 37.2195 22.704C37.2195 22.1867 37.3688 21.7173 37.6675 21.296C37.9715 20.8747 38.3822 20.5413 38.8995 20.296C39.4168 20.0453 39.9928 19.92 40.6275 19.92C41.2675 19.92 41.8435 20.0453 42.3555 20.296C42.8728 20.5413 43.2808 20.8747 43.5795 21.296C43.8835 21.7173 44.0355 22.1867 44.0355 22.704C44.0355 23.2267 43.8835 23.6987 43.5795 24.12C43.2808 24.5413 42.8755 24.8773 42.3635 25.128C41.8515 25.3733 41.2728 25.496 40.6275 25.496ZM40.6275 24.328C41.0222 24.328 41.3688 24.2613 41.6675 24.128C41.9715 23.9893 42.2088 23.8 42.3795 23.56C42.5502 23.3147 42.6355 23.0293 42.6355 22.704C42.6355 22.224 42.4488 21.8347 42.0755 21.536C41.7075 21.232 41.2248 21.08 40.6275 21.08C40.2328 21.08 39.8835 21.1493 39.5795 21.288C39.2808 21.4267 39.0462 21.6187 38.8755 21.864C38.7102 22.104 38.6275 22.384 38.6275 22.704C38.6275 23.184 38.8115 23.576 39.1795 23.88C39.5528 24.1787 40.0355 24.328 40.6275 24.328ZM41.8675 21.368L41.3235 20.296L45.3715 20.16L45.3555 21.408L41.8675 21.368ZM50.4715 28.24C49.6608 28.24 48.9382 28.0507 48.3035 27.672C47.6688 27.2933 47.1702 26.7893 46.8075 26.16C46.4448 25.5307 46.2635 24.8373 46.2635 24.08C46.2635 23.52 46.3675 22.9893 46.5755 22.488C46.7835 21.9867 47.0768 21.544 47.4555 21.16C47.8342 20.7707 48.2795 20.4667 48.7915 20.248C49.3035 20.0293 49.8635 19.92 50.4715 19.92C51.2875 19.92 52.0128 20.1093 52.6475 20.488C53.2822 20.8667 53.7808 21.3707 54.1435 22C54.5062 22.6293 54.6875 23.3227 54.6875 24.08C54.6875 24.64 54.5835 25.1707 54.3755 25.672C54.1675 26.1733 53.8742 26.616 53.4955 27C53.1168 27.384 52.6715 27.688 52.1595 27.912C51.6475 28.1307 51.0848 28.24 50.4715 28.24ZM50.4715 26.912C50.9995 26.912 51.4662 26.7973 51.8715 26.568C52.2822 26.3333 52.6048 26.0053 52.8395 25.584C53.0742 25.1573 53.1915 24.656 53.1915 24.08C53.1915 23.4987 53.0742 22.9973 52.8395 22.576C52.6102 22.1493 52.2902 21.8213 51.8795 21.592C51.4688 21.3627 50.9995 21.248 50.4715 21.248C49.9435 21.248 49.4742 21.3627 49.0635 21.592C48.6582 21.8213 48.3382 22.1493 48.1035 22.576C47.8742 22.9973 47.7595 23.4987 47.7595 24.08C47.7595 24.656 47.8742 25.1573 48.1035 25.584C48.3382 26.0053 48.6608 26.3333 49.0715 26.568C49.4822 26.7973 49.9488 26.912 50.4715 26.912Z" fill="#1B1B1E"/>
</svg>
