<svg width="24" height="24" viewBox="0 0 24 24" fill="none" xmlns="http://www.w3.org/2000/svg">
<path d="M6.5 9.5V14.5M18.5 9.5V14.5M3.05556 6.55556C3.58333 6.27778 8.27778 6 12.5 6C16.7222 6 21.4167 6.27778 21.9444 6.55556C22.4722 6.83333 23 9.77778 23 12C23 14.2222 22.4722 17.1667 21.9444 17.4444C21.4167 17.7222 16.7222 18 12.5 18C8.27778 18 3.58333 17.7222 3.05556 17.4444C2.52778 17.1667 2 14.2222 2 12C2 9.77778 2.52778 6.83333 3.05556 6.55556ZM15 12C15 13.3807 13.8807 14.5 12.5 14.5C11.1193 14.5 10 13.3807 10 12C10 10.6193 11.1193 9.5 12.5 9.5C13.8807 9.5 15 10.6193 15 12Z" stroke="currentColor" stroke-width="1.5" stroke-linecap="round" stroke-linejoin="round"/>
</svg>
